<?xml version="1.0" standalone="no"?><!DOCTYPE svg PUBLIC "-//W3C//DTD SVG 1.1//EN" "http://www.w3.org/Graphics/SVG/1.1/DTD/svg11.dtd"><svg t="1721616647787" class="icon" viewBox="0 0 1057 1024" version="1.1" xmlns="http://www.w3.org/2000/svg" p-id="19930" xmlns:xlink="http://www.w3.org/1999/xlink" width="206.4453125" height="200"><path d="M273.246012 565.579533a308.666792 244.230437 0 1 0 617.333584 0 308.666792 244.230437 0 1 0-617.333584 0Z" fill="#FEE049" p-id="19931"></path><path d="M386.297867 518.821543m-39.52011 0a39.52011 39.52011 0 1 0 79.04022 0 39.52011 39.52011 0 1 0-79.04022 0Z" fill="#565350" p-id="19932"></path><path d="M542.456746 518.821543m-39.52011 0a39.52011 39.52011 0 1 0 79.04022 0 39.52011 39.52011 0 1 0-79.04022 0Z" fill="#565350" p-id="19933"></path><path d="M705.853506 518.821543m-39.52011 0a39.52011 39.52011 0 1 0 79.04022 0 39.52011 39.52011 0 1 0-79.04022 0Z" fill="#565350" p-id="19934"></path><path d="M544.76262 850.354913c-46.629887-5.892788-92.747357-17.678364-137.135423-34.652155-44.388065-16.909739-87.046725-39.456058-125.798211-68.663789a346.393445 346.393445 0 0 1-53.547507-50.024645c-16.141115-18.703196-30.232564-39.712266-40.865203-62.771001-10.696691-22.994683-17.742416-48.167136-19.792081-73.916057-1.088885-13.002565-0.960781-25.428661-0.512417-37.854757 0.576468-12.490148 1.729405-24.916244 3.650967-37.342341 7.494089-49.512229 25.941077-97.679364 54.059923-139.505348 27.862638-41.954088 64.500407-78.015388 106.710703-105.621818 42.146244-27.734534 90.185276-46.373679 139.761556-55.725276a400.927353 400.927353 0 0 1 150.586352 1.152936c49.512229 10.120223 97.166948 29.848252 139.185087 58.159255 41.825984 28.439107 78.3997 64.948771 105.429662 107.863639 27.222118 42.722712 45.220742 91.338212 51.946206 141.426909 3.330706 25.108401 4.355539 50.152749 1.729405 75.709514-2.562082 25.364609-8.390818 50.216801-16.909739 73.852005-17.165947 47.270407-44.259961 89.929067-77.759179 125.670107-33.371114 35.869144-72.506912 65.781447-115.10152 88.712079-42.722712 22.610371-88.712079 38.943642-136.174642 45.861262-23.699256 3.45881-47.654719 4.803903-71.353975 3.586914-23.699256-1.409145-47.206355-4.867955-69.94483-10.824795 46.629887 5.764684 93.708138 3.266654 138.288359-8.006505a420.194208 420.194208 0 0 0 125.221743-54.444236c38.239069-24.46788 72.955276-54.380184 101.202227-89.224495 28.118847-34.780259 50.921374-73.659849 63.66773-115.42178 6.405204-20.816914 10.376431-42.146244 11.529367-63.539626 1.024833-21.137174-0.32026-43.235129-3.843122-64.500407-7.045725-42.722712-23.635204-83.587915-47.910928-119.264902-48.167136-71.738287-125.798211-122.531557-210.603115-139.185088-84.804904-17.358103-176.079064-1.793457-249.802965 43.939701a321.541252 321.541252 0 0 0-94.540814 88.13561c-24.980296 35.484831-43.235129 75.90167-51.882155 118.752486-2.177769 10.696691-3.77907 21.521486-4.803903 32.474386-0.896729 10.952899-1.601301 22.033903-1.152936 32.410333 0.896729 21.073122 5.252267 42.082192 12.938512 62.194533 15.436542 40.416839 44.259961 75.965722 78.015388 106.00613 33.819478 30.360668 73.275536 54.8926 114.589103 75.709514 41.505723 20.624758 85.445424 36.958028 130.922375 48.871708z" fill="#565350" p-id="19935"></path></svg>