<?xml version="1.0" standalone="no"?><!DOCTYPE svg PUBLIC "-//W3C//DTD SVG 1.1//EN" "http://www.w3.org/Graphics/SVG/1.1/DTD/svg11.dtd"><svg t="1721632623056" class="icon" viewBox="0 0 1024 1024" version="1.1" xmlns="http://www.w3.org/2000/svg" p-id="2650" xmlns:xlink="http://www.w3.org/1999/xlink" width="200" height="200"><path d="M512.98 737.08c-24.6 0.01-48.25-10.31-66.07-28.82L112.84 402.12c-17.73-16.25-20.05-45.12-5.17-64.49 14.88-19.36 41.32-21.89 59.06-5.64l337.94 309.76c2.19 2.44 5.18 3.81 8.3 3.81 3.12 0 6.12-1.37 8.3-3.81l2.77-2.62L859.2 331.99c17.74-16.25 44.18-13.72 59.06 5.64 14.88 19.37 12.57 48.24-5.17 64.49L579.05 708.26c-17.82 18.51-41.47 28.83-66.07 28.82z m0 0" p-id="2651"></path></svg>