<?xml version="1.0" standalone="no"?><!DOCTYPE svg PUBLIC "-//W3C//DTD SVG 1.1//EN" "http://www.w3.org/Graphics/SVG/1.1/DTD/svg11.dtd"><svg t="1721615966197" class="icon" viewBox="0 0 1024 1024" version="1.1" xmlns="http://www.w3.org/2000/svg" p-id="10633" xmlns:xlink="http://www.w3.org/1999/xlink" width="200" height="200"><path d="M512 512m-512 0a512 512 0 1 0 1024 0 512 512 0 1 0-1024 0Z" fill="#FFD93B" p-id="10634"></path><path d="M1024 512c0 282.88-229.28 512-512 512-160.96 0-304.64-74.24-398.56-190.56 87.84 71.04 199.68 113.44 321.44 113.44 282.72 0 512-229.12 512-512 0-121.76-42.4-233.6-113.44-321.44C949.6 207.36 1024 351.04 1024 512z" fill="#F4C534" p-id="10635"></path><path d="M486.176 476.224c0 93.472-75.936 169.696-169.696 169.696-93.472 0-169.696-76.224-169.696-169.696 0-93.76 76.224-169.696 169.696-169.696 93.76 0.032 169.696 75.936 169.696 169.696z" fill="#F4C534" p-id="10636"></path><path d="M459.904 476.224c-8.192 78.976-79.04 143.36-158.304 143.36-79.008 0-136.768-64.384-128.576-143.36 8.224-79.232 79.296-143.392 158.304-143.392 79.264 0.032 136.8 64.192 128.576 143.392z" fill="#FFFFFF" p-id="10637"></path><path d="M262.348 473.152a70.176 70.176 0 1 0 140.352 0 70.176 70.176 0 1 0-140.352 0Z" fill="#3E4347" p-id="10638"></path><path d="M376.657923 461.787322a23.136 13.6 45.001 1 0-32.718674-32.719816 23.136 13.6 45.001 1 0 32.718674 32.719816Z" fill="#5A5F63" p-id="10639"></path><path d="M172.256 299.648c-4.48-26.88 28.512-87.04 83.2-112.48 82.752-34.816 152.704-14.464 195.968 36.832-57.44-7.584-91.488-27.52-178.624 3.232-29.056 13.024-85.568 44.32-100.544 72.416z" fill="#3E4347" p-id="10640"></path><path d="M537.824 476.224c0 93.472 75.936 169.696 169.696 169.696 93.472 0 169.696-76.224 169.696-169.696 0-93.76-76.224-169.696-169.696-169.696-93.76 0.032-169.696 75.936-169.696 169.696z" fill="#F4C534" p-id="10641"></path><path d="M564.096 476.224c8.192 78.976 79.04 143.36 158.304 143.36 79.008 0 136.768-64.384 128.608-143.36-8.224-79.232-79.296-143.392-158.304-143.392-79.296 0.032-136.832 64.192-128.608 143.392z" fill="#FFFFFF" p-id="10642"></path><path d="M621.254 473.158a70.176 70.176 0 1 0 140.352 0 70.176 70.176 0 1 0-140.352 0Z" fill="#3E4347" p-id="10643"></path><path d="M673.288484 454.971648a13.6 23.136 45.001 1 0-19.232968-19.23364 13.6 23.136 45.001 1 0 19.232968 19.23364Z" fill="#5A5F63" p-id="10644"></path><path d="M851.744 299.648c-12.448-17.12-61.792-43.648-81.28-53.408-11.328-6.592-48.832-19.424-72.896-22.112-44.768-8.448-92.992 0.64-124.992-0.128 32-26.272 98.208-55.936 161.184-38.464 16.32 3.392 42.528 15.36 58.016 27.136 21.248 13.984 64.192 65.216 59.968 86.976z" fill="#3E4347" p-id="10645"></path><path d="M630.977094 882.925043a78.332 101.596 76.591 1 0-36.330492-152.393255 78.332 101.596 76.591 1 0 36.330492 152.393255Z" fill="#3E4347" p-id="10646"></path></svg>